<svg xmlns="http://www.w3.org/2000/svg" xmlns:xlink="http://www.w3.org/1999/xlink" width="318" zoomAndPan="magnify" viewBox="0 0 238.5 263.99999" height="352" preserveAspectRatio="xMidYMid meet" version="1.2"><defs/><g id="ed7a6ce0ed"><g style="fill:#bb2626;fill-opacity:1;"><g transform="translate(50.077248, 168.166523)"><path style="stroke:none" d="M 65 -111.953125 L 110.1875 0 L 82.78125 0 L 74.5 -22.390625 L 31.890625 -22.390625 L 23.609375 0 L -3.796875 0 L 41.390625 -111.953125 Z M 65.8125 -44.78125 L 53.328125 -77.34375 L 53.0625 -77.34375 L 40.578125 -44.78125 Z M 65.8125 -44.78125 "/></g></g><g style="fill:#bb2626;fill-opacity:1;"><g transform="translate(191.258427, 107.377371)"><path style="stroke:none" d="M -43.828125 -52.40625 C -44.347656 -52.40625 -44.804688 -52.203125 -45.203125 -51.796875 C -45.609375 -51.390625 -45.8125 -50.894531 -45.8125 -50.3125 L -45.484375 -35.484375 L -58.5625 -36.359375 L -58.890625 -36.359375 C -59.472656 -36.359375 -59.945312 -36.175781 -60.3125 -35.8125 C -60.820312 -35.300781 -61.078125 -34.71875 -61.078125 -34.0625 L -60.3125 -24.609375 C -60.3125 -23.878906 -60.109375 -23.328125 -59.703125 -22.953125 C -59.304688 -22.585938 -58.8125 -22.441406 -58.21875 -22.515625 L -45.15625 -22.078125 L -44.828125 -8.453125 C -44.828125 -7.285156 -44.203125 -6.628906 -42.953125 -6.484375 L -36.578125 -6.046875 L -36.90625 -6.265625 L -36.578125 -6.265625 L -36.359375 -6.046875 L -33.171875 -5.828125 C -32.660156 -5.828125 -32.113281 -6.046875 -31.53125 -6.484375 C -31.09375 -6.921875 -30.945312 -7.46875 -31.09375 -8.125 L -31.75 -21.640625 L -17.796875 -21.203125 C -17.140625 -21.203125 -16.570312 -21.4375 -16.09375 -21.90625 C -15.613281 -22.382812 -15.410156 -22.957031 -15.484375 -23.625 L -16.15625 -31.75 C -16.300781 -32.988281 -16.992188 -33.648438 -18.234375 -33.734375 L -32.515625 -34.609375 L -33.28125 -49.875 C -33.425781 -51.125 -34.015625 -51.785156 -35.046875 -51.859375 L -41.53125 -52.296875 L -41.53125 -51.859375 L -42.625 -51.859375 L -43.609375 -52.40625 Z M -54.375 -30.21875 C -54.375 -30.21875 -54.390625 -30.234375 -54.421875 -30.265625 C -54.460938 -30.304688 -54.484375 -30.328125 -54.484375 -30.328125 L -54.703125 -30.4375 L -54.375 -30.4375 Z M -50.421875 -28.015625 C -50.347656 -27.941406 -50.289062 -27.847656 -50.25 -27.734375 C -50.21875 -27.628906 -50.203125 -27.503906 -50.203125 -27.359375 L -50.640625 -27.578125 C -50.640625 -27.578125 -50.617188 -27.59375 -50.578125 -27.625 C -50.546875 -27.664062 -50.53125 -27.722656 -50.53125 -27.796875 Z M -50.203125 -31.09375 L -50.203125 -31.3125 L -49.875 -31.3125 L -49.875 -31.09375 Z M -43.390625 -29.109375 L -43.5 -29.546875 L -42.734375 -29.65625 Z M -43.390625 -40.09375 C -42.953125 -39.363281 -42.953125 -38.925781 -43.390625 -38.78125 Z M -43.390625 -42.296875 L -43.390625 -43.171875 L -42.953125 -43.171875 L -42.953125 -43.390625 L -42.515625 -43.390625 L -42.515625 -43.171875 L -42.953125 -43.171875 L -42.953125 -42.296875 Z M -40.09375 -29.328125 L -41.53125 -29.65625 L -40.203125 -29.765625 Z M -39.21875 -34.828125 L -39.21875 -33.953125 L -39.765625 -33.953125 L -39.765625 -34.828125 Z M -36.796875 -36.140625 L -36.796875 -35.265625 L -37.359375 -35.265625 L -37.359375 -36.140625 Z M -35.59375 -20.109375 C -35.957031 -20.109375 -36.140625 -20.253906 -36.140625 -20.546875 C -35.921875 -20.765625 -35.738281 -20.875 -35.59375 -20.875 Z M -35.046875 -26.03125 C -35.046875 -25.519531 -35.117188 -25.265625 -35.265625 -25.265625 C -35.410156 -25.554688 -35.335938 -25.847656 -35.046875 -26.140625 Z M -26.59375 -29.65625 L -26.59375 -28.78125 L -27.03125 -28.78125 L -27.03125 -29.65625 Z M -24.28125 -26.46875 L -24.28125 -26.703125 L -23.84375 -27.03125 L -23.84375 -26.8125 Z M -24.28125 -26.46875 "/></g></g></g></svg>